<?xml version="1.0" encoding="UTF-8" standalone="no"?>
<!DOCTYPE svg PUBLIC "-//W3C//DTD SVG 1.1//EN"
 "http://www.w3.org/Graphics/SVG/1.1/DTD/svg11.dtd">
<!-- Generated by graphviz version 2.43.0 (0) -->
<svg width="1074pt" height="888pt"
 viewBox="0.00 0.00 1074.00 888.00" xmlns="http://www.w3.org/2000/svg" xmlns:xlink="http://www.w3.org/1999/xlink">
<g id="cluster5" class="cluster">
<title>cluster5</title>
<polygon fill="none" stroke="gray" stroke-dasharray="5,2" points="8,-0 8,-0 1066,-0 1066,-0 1066,-135 8,-135 8,-135 8,-0"/>
<text text-anchor="middle" x="537" y="-119.8" font-family="Arial" font-size="14.00">用户与访问层</text>
</g>
<g id="node14" class="node">
<title>user_biz</title>
<ellipse fill="white" stroke="black" cx="348" cy="-72" rx="90.19" ry="27"/>
<text text-anchor="middle" x="348" y="-67.2" font-family="Arial" font-size="14.00">业务用户</text>
<text text-anchor="middle" x="348" y="-50.2" font-family="Arial" font-size="11.00">(报表请求、文档查看)</text>
</g>
<g id="node15" class="node">
<title>user_ops</title>
<ellipse fill="white" stroke="black" cx="727" cy="-72" rx="102.79" ry="27"/>
<text text-anchor="middle" x="727" y="-67.2" font-family="Arial" font-size="14.00">运维/审计</text>
<text text-anchor="middle" x="727" y="-50.2" font-family="Arial" font-size="11.00">(使用血缘系统追溯数据)</text>
</g>
<g id="cluster4" class="cluster">
<title>cluster4</title>
<polygon fill="none" stroke="gray" stroke-dasharray="5,2" points="8,-135 8,-135 1066,-135 1066,-135 1066,-232 8,-232 8,-232 8,-135"/>
<text text-anchor="middle" x="537" y="-216.8" font-family="Arial" font-size="14.00">应用服务层</text>
</g>
<g id="node11" class="node">
<title>app_doc</title>
<ellipse fill="white" stroke="black" cx="218" cy="-183" rx="104.88" ry="18"/>
<text text-anchor="middle" x="218" y="-179.8" font-family="Arial" font-size="14.00">文档模板生成引擎</text>
</g>
<g id="node12" class="node">
<title>app_dataapi</title>
<ellipse fill="white" stroke="black" cx="537" cy="-183" rx="67.29" ry="18"/>
<text text-anchor="middle" x="537" y="-179.8" font-family="Arial" font-size="14.00">数据访问服务</text>
</g>
<g id="node13" class="node">
<title>app_report</title>
<ellipse fill="white" stroke="black" cx="858" cy="-183" rx="91.97" ry="18"/>
<text text-anchor="middle" x="858" y="-179.8" font-family="Arial" font-size="14.00">报表调度与接口服务</text>
</g>
<g id="cluster2" class="cluster">
<title>cluster2</title>
<polygon fill="none" stroke="gray" stroke-dasharray="5,2" points="8,-232 8,-232 1066,-232 1066,-232 1066,-357 8,-357 8,-357 8,-232"/>
<text text-anchor="middle" x="537" y="-341.8" font-family="Arial" font-size="14.00">中台存储层</text>
</g>
<g id="node7" class="node">
<title>stor_hdf5</title>
<ellipse fill="white" stroke="black" cx="218" cy="-293" rx="94.18" ry="18"/>
<text text-anchor="middle" x="218" y="-289.8" font-family="Arial" font-size="14.00">HDF5大数据</text>
<text text-anchor="middle" x="218" y="-272.8" font-family="Arial" font-size="14.00">文件系统</text>
</g>
<g id="node8" class="node">
<title>stor_mysql</title>
<ellipse fill="white" stroke="black" cx="537" cy="-293" rx="106.4" ry="18"/>
<text text-anchor="middle" x="537" y="-289.8" font-family="Arial" font-size="14.00">MySQL数据库</text>
<text text-anchor="middle" x="537" y="-272.8" font-family="Arial" font-size="14.00">(可溯源数据)</text>
</g>
<g id="node9" class="node">
<title>stor_redis</title>
<ellipse fill="white" stroke="black" cx="858" cy="-293" rx="85.99" ry="18"/>
<text text-anchor="middle" x="858" y="-289.8" font-family="Arial" font-size="14.00">Redis缓存系统</text>
</g>
<g id="cluster3" class="cluster">
<title>cluster3</title>
<polygon fill="none" stroke="gray" stroke-dasharray="5,2" points="8,-357 8,-357 1066,-357 1066,-357 1066,-427 8,-427 8,-427 8,-357"/>
<text text-anchor="middle" x="537" y="-411.8" font-family="Arial" font-size="14.00">实时处理层</text>
</g>
<g id="node5" class="node">
<title>rt_kafka</title>
<ellipse fill="white" stroke="black" cx="537" cy="-384" rx="47.29" ry="18"/>
<text text-anchor="middle" x="537" y="-380.8" font-family="Arial" font-size="14.00">Kafka集群</text>
</g>
<g id="node6" class="node">
<title>rt_stream</title>
<ellipse fill="white" stroke="black" cx="858" cy="-384" rx="141.43" ry="34.5"/>
<text text-anchor="middle" x="858" y="-380.8" font-family="Arial" font-size="14.00">Flink / Spark Streaming</text>
<text text-anchor="middle" x="858" y="-363.8" font-family="Arial" font-size="14.00">流处理模块</text>
</g>
<g id="cluster1" class="cluster">
<title>cluster1</title>
<polygon fill="none" stroke="gray" stroke-dasharray="5,2" points="8,-427 8,-427 1066,-427 1066,-427 1066,-550 8,-550 8,-550 8,-427"/>
<text text-anchor="middle" x="537" y="-534.8" font-family="Arial" font-size="14.00">数据接入与处理层</text>
</g>
<g id="node3" class="node">
<title>proc_etl</title>
<ellipse fill="white" stroke="black" cx="218" cy="-488" rx="113.55" ry="34.5"/>
<text text-anchor="middle" x="218" y="-484.8" font-family="Arial" font-size="14.00">数据清洗转换模块</text>
<text text-anchor="middle" x="218" y="-467.8" font-family="Arial" font-size="14.00">(ETL流程)</text>
</g>
<g id="node4" class="node">
<title>proc_kafka</title>
<ellipse fill="white" stroke="black" cx="537" cy="-488" rx="102.4" ry="18"/>
<text text-anchor="middle" x="537" y="-484.8" font-family="Arial" font-size="14.00">Kafka消息接入与调度</text>
</g>
<g id="node10" class="node">
<title>proc_meta</title>
<polygon fill="#E8EEFF" stroke="blue" points="780.5,-515 700.5,-515 700.5,-461 780.5,-461 780.5,-515"/>
<text text-anchor="middle" x="740.5" y="-484.8" font-family="Arial" font-size="14.00">元数据/血缘管理模块</text>
</g>
<g id="cluster0" class="cluster">
<title>cluster0</title>
<polygon fill="none" stroke="gray" stroke-dasharray="5,2" points="8,-550 8,-550 1066,-550 1066,-550 1066,-625 8,-625 8,-625 8,-550"/>
<text text-anchor="middle" x="537" y="-609.8" font-family="Arial" font-size="14.00">底层数据源层</text>
</g>
<g id="node1" class="node">
<title>src_emp</title>
<ellipse fill="white" stroke="black" cx="143" cy="-587" rx="113.09" ry="27"/>
<text text-anchor="middle" x="143" y="-582.2" font-family="Arial" font-size="14.00">员工终端数据</text>
<text text-anchor="middle" x="143" y="-565.2" font-family="Arial" font-size="14.00">(文档、邮件)</text>
</g>
<g id="node2" class="node">
<title>src_crawl</title>
<ellipse fill="white" stroke="black" cx="374" cy="-587" rx="117.11" ry="27"/>
<text text-anchor="middle" x="374" y="-582.2" font-family="Arial" font-size="14.00">网络爬虫数据</text>
<text text-anchor="middle" x="374" y="-565.2" font-family="Arial" font-size="14.00">(结构化、非结构化)</text>
</g>
<g id="node0" class="node">
<title>src_db</title>
<ellipse fill="white" stroke="black" cx="605" cy="-587" rx="106.4" ry="27"/>
<text text-anchor="middle" x="605" y="-582.2" font-family="Arial" font-size="14.00">内部数据库</text>
<text text-anchor="middle" x="605" y="-565.2" font-family="Arial" font-size="14.00">(MySQL、HDF5)</text>
</g>
<g id="node16" class="node">
<title>src_rtsys</title>
<ellipse fill="white" stroke="black" cx="858" cy="-587" rx="75.89" ry="18"/>
<text text-anchor="middle" x="858" y="-584.8" font-family="Arial" font-size="14.00">实时交易系统</text>
</g>
<g id="edge8" class="edge">
<title>proc_etl&#45;&gt;stor_hdf5</title>
<path fill="none" stroke="black" d="M205.74,-446.83C201.94,-436.45 197.53,-424.43 193.32,-413.34"/>
<polygon fill="black" stroke="black" points="196.58,-412.07 191.52,-402.98 190.09,-413.39 196.58,-412.07"/>
</g>
<g id="edge9" class="edge">
<title>proc_etl&#45;&gt;stor_mysql</title>
<path fill="none" stroke="black" d="M239.67,-457.47C283.87,-446.65 394.2,-420.42 482,-399 500.49,-394.5 520.21,-389.89 533.94,-386.62"/>
<polygon fill="black" stroke="black" points="535.05,-390.01 543.77,-384.91 532.8,-383.24 535.05,-390.01"/>
</g>
<g id="edge10" class="edge">
<title>rt_stream&#45;&gt;stor_mysql</title>
<path fill="none" stroke="black" d="M808.72,-349.91C758.98,-338.54 668.8,-318.21 594,-302 545.78,-291.87 545.78,-291.87 497.55,-281.71"/>
<polygon fill="black" stroke="black" points="498.5,-278.44 487.65,-279.83 495.82,-284.88 498.5,-278.44"/>
</g>
<g id="edge11" class="edge">
<title>rt_stream&#45;&gt;stor_redis</title>
<path fill="none" stroke="black" d="M877.8,-349.64C882.98,-338.88 887.98,-327.69 892.69,-317.12"/>
<polygon fill="black" stroke="black" points="896.76,-318.42 899.61,-308.12 888.97,-315.68 896.76,-318.42"/>
</g>
<g id="edge4" class="edge">
<title>proc_kafka&#45;&gt;rt_kafka</title>
<path fill="none" stroke="black" d="M537,-469.01C537,-459.07 537,-447.81 537,-438.36"/>
<polygon fill="black" stroke="black" points="540.5,-438.01 537,-428.01 533.5,-438.01 540.5,-438.01"/>
</g>
<g id="edge5" class="edge">
<title>rt_kafka&#45;&gt;rt_stream</title>
<path fill="none" stroke="black" d="M558.11,-373.67C584.61,-365.03 619.09,-354.41 648,-346 686.52,-334.97 686.52,-334.97 725.03,-323.91"/>
<polygon fill="black" stroke="black" points="726.82,-327.24 733.38,-317.8 723.48,-320.44 726.82,-327.24"/>
</g>
<g id="edge6" class="edge">
<title>stor_hdf5&#45;&gt;app_dataapi</title>
<path fill="none" stroke="black" d="M236.95,-274.94C287.11,-264.25 391.04,-242.92 472,-226 484.06,-223.5 496.95,-220.94 507.71,-218.53"/>
<polygon fill="black" stroke="black" points="508.56,-222.11 517.25,-216.79 507.79,-214.93 508.56,-222.11"/>
</g>
<g id="edge7" class="edge">
<title>stor_mysql&#45;&gt;app_dataapi</title>
<path fill="none" stroke="black" d="M537,-274.61C537,-264.59 537,-252.82 537,-242.44"/>
<polygon fill="black" stroke="black" points="540.5,-242.11 537,-232.11 533.5,-242.11 540.5,-242.11"/>
</g>
<g id="edge12" class="edge">
<title>stor_redis&#45;&gt;app_doc</title>
<path fill="none" stroke="black" d="M832.4,-274.57C771.95,-264.14 640.86,-242.74 513,-226 462.26,-219.67 405.35,-213.33 356.55,-208.35"/>
<polygon fill="black" stroke="black" points="357.48,-204.76 347.52,-206.19 355.55,-211.78 357.48,-204.76"/>
</g>
<g id="edge13" class="edge">
<title>app_dataapi&#45;&gt;app_report</title>
<path fill="none" stroke="black" d="M586.79,-183C641.1,-183 752.94,-183 817.72,-183"/>
<polygon fill="black" stroke="black" points="817.72,-186.5 827.72,-183 817.72,-179.5 817.72,-186.5"/>
</g>
<g id="edge14" class="edge">
<title>app_report&#45;&gt;user_biz</title>
<path fill="none" stroke="black" d="M829.42,-165.94C766.14,-150.18 649.62,-124.65 552,-103 502.84,-92.185 502.84,-92.185 453.72,-81.542"/>
<polygon fill="black" stroke="black" points="454.58,-78.0201 444.8,-80.3439 452.72,-85.0233 454.58,-78.0201"/>
</g>
<g id="edge15" class="edge">
<title>proc_meta&#45;&gt;user_ops</title>
<path fill="none" stroke="black" d="M764.25,-460.53C787.6,-409.72 823.88,-330.61 846.46,-280.11 868.11,-231.43 877.81,-211.11 900.28,-166.53"/>
<polygon fill="black" stroke="black" points="903.6,-167.92 906.43,-157.589 897.33,-165.07 903.6,-167.92"/>
</g>
<g id="edge1" class="edge">
<title>src_emp&#45;&gt;proc_etl</title>
<path fill="none" stroke="black" d="M160.83,-567.98C183.83,-558.68 214.16,-546.6 238,-536 260.14,-526.2 260.14,-526.2 282.91,-516.05"/>
<polygon fill="black" stroke="black" points="285.17,-519.43 291.96,-510.75 280.72,-512.77 285.17,-519.43"/>
</g>
<g id="edge2" class="edge">
<title>src_crawl&#45;&gt;proc_etl</title>
<path fill="none" stroke="black" d="M374,-559.17C374,-548.76 374,-536.33 374,-525.44"/>
<polygon fill="black" stroke="black" points="377.5,-525.11 374,-515.11 370.5,-525.11 377.5,-525.11"/>
</g>
<g id="edge3" class="edge">
<title>src_db&#45;&gt;proc_etl</title>
<path fill="none" stroke="black" d="M573.36,-565.28C546.72,-554.11 507.95,-538.8 472,-525 455.42,-518.52 455.42,-518.52 438.89,-512.03"/>
<polygon fill="black" stroke="black" points="440.56,-508.39 429.39,-511.94 437.84,-515.54 440.56,-508.39"/>
</g>
<g id="edge0" class="edge">
<title>src_rtsys&#45;&gt;proc_kafka</title>
<path fill="none" stroke="black" d="M834.66,-568.14C804.39,-558.83 763.13,-546.18 727,-535 679.14,-519.82 679.14,-519.82 631.33,-504.56"/>
<polygon fill="black" stroke="black" points="632.76,-500.48 621.61,-503.16 630.41,-508.64 632.76,-500.48"/>
</g>
<g id="edge16" class="edge">
<title>proc_etl&#45;&gt;proc_meta</title>
<path fill="none" stroke="blue" stroke-dasharray="5,2" d="M248.06,-505.92C315.97,-493.4 455.01,-469.43 567.83,-448.73 589.11,-444.72 589.11,-444.72 610.68,-440.72"/>
<polygon fill="blue" stroke="blue" points="612.18,-444.17 619.59,-435.98 609.85,-437.2 612.18,-444.17"/>
</g>
<g id="edge17" class="edge">
<title>rt_stream&#45;&gt;proc_meta</title>
<path fill="none" stroke="blue" stroke-dasharray="5,2" d="M809.85,-364.17C787.51,-370.82 760.36,-379.18 740.5,-384.72"/>
<polygon fill="blue" stroke="blue" points="739.83,-380.57 732.86,-388.3 740.78,-388.85 739.83,-380.57"/>
</g>
</svg>

